<svg xmlns="http://www.w3.org/2000/svg" viewBox="0 0 318.35 126.85"><defs><style>.a{fill:#F25430;}</style></defs><title>1</title><path class="a" d="M163.31,61.19a1.53,1.53,0,0,1-2.29.52l-6.68-3.93H153.1c-5.36,0-8-2.74-8-8V19.18c0-5.23,2.69-8,8-8h2.09c5.37,0,8.05,2.75,8.05,8v30c0,4-1.57,6.55-4.58,7.53l3.93,1.9a1.48,1.48,0,0,1,.78,2.42Zm-4-11.26V19.05c0-2.81-1.38-4.18-4.26-4.18h-1.83c-2.88,0-4.25,1.37-4.25,4.18V49.93c0,2.82,1.37,4.19,4.25,4.19h1.83C157.94,54.12,159.32,52.75,159.32,49.93Z"/><path class="a" d="M184.83,11.46a1.73,1.73,0,0,1,1.9,1.9V49.74c0,5.3-2.69,8-8.12,8h-1.7c-5.36,0-8-2.74-8-8V13.36a1.72,1.72,0,0,1,1.89-1.9h.13a1.7,1.7,0,0,1,1.9,1.9V49.87c0,2.88,1.44,4.25,4.32,4.25h1.37c2.88,0,4.32-1.37,4.32-4.25V13.36a1.7,1.7,0,0,1,1.9-1.9Z"/><path class="a" d="M192.61,13.75a1.94,1.94,0,0,1,2.16-2.16h10.08a1.62,1.62,0,0,1,1.76,1.77v.13a1.59,1.59,0,0,1-1.76,1.77h-8.31V32.2h8A1.62,1.62,0,0,1,206.29,34v.13a1.62,1.62,0,0,1-1.77,1.77h-8V53.73H205a1.59,1.59,0,0,1,1.76,1.77v.13A1.61,1.61,0,0,1,205,57.39H194.77a1.93,1.93,0,0,1-2.16-2.16Z"/><path class="a" d="M224.28,35.54c2.88.79,4.38,2.68,4.38,6.48V55.63a1.69,1.69,0,0,1-1.9,1.89h-.13a1.69,1.69,0,0,1-1.9-1.89V42.15c0-3.27-1.57-4.78-4.9-4.78h-4.45V55.63a1.69,1.69,0,0,1-1.9,1.89h-.13a1.69,1.69,0,0,1-1.9-1.89V13.75a1.94,1.94,0,0,1,2.16-2.16h6.94c5.36,0,8,2.69,8,8v8.76C228.59,32.6,227,34.56,224.28,35.54Zm.39-16.16c0-2.81-1.37-4.12-4.25-4.12h-5V33.77h4.51c3.21,0,4.78-1.5,4.78-4.71Z"/><path class="a" d="M252.54,49.74c0,5.3-2.68,8-8,8H242.4c-5.37,0-8.05-2.74-8.05-8V19.18c0-5.23,2.68-8,8.05-8h2.09c5.37,0,8,2.75,8,8Zm-3.93-30.69c0-2.81-1.37-4.18-4.25-4.18h-1.83c-2.88,0-4.25,1.37-4.25,4.18V49.93c0,2.82,1.37,4.19,4.25,4.19h1.83c2.88,0,4.25-1.37,4.25-4.19Z"/><path class="a" d="M157.42,97.14c0-1.44.65-2.09,2.09-2.09h4.84c1.44,0,2.1.65,2.1,2.09v10c0,5.69-2.82,8.51-8.51,8.51h-5.63c-5.69,0-8.5-2.82-8.5-8.51V77.58c0-5.69,2.81-8.51,8.5-8.51h5.5c5.69,0,8.51,2.82,8.51,8.51v8.63a1.83,1.83,0,0,1-2.1,2.1h-4.84c-1.44,0-2.09-.66-2.09-2.1V78.56a1.44,1.44,0,0,0-1.64-1.64H154.6A1.43,1.43,0,0,0,153,78.56v27.61a1.42,1.42,0,0,0,1.63,1.63h1.18a1.43,1.43,0,0,0,1.64-1.63Z"/><path class="a" d="M178.68,87.92h4.58V71.56c0-1.44.65-2.09,2.09-2.09h5c1.44,0,2.1.65,2.1,2.09v41.61c0,1.44-.66,2.09-2.1,2.09h-5c-1.44,0-2.09-.65-2.09-2.09V96.09h-4.58v17.08a1.82,1.82,0,0,1-2.09,2.09h-5c-1.44,0-2.09-.65-2.09-2.09V71.56c0-1.44.65-2.09,2.09-2.09h5a1.82,1.82,0,0,1,2.09,2.09Z"/><path class="a" d="M216.1,69.47c1.44,0,2.09.65,2.09,2.09v35.59c0,5.69-2.81,8.51-8.5,8.51h-5.56c-5.7,0-8.51-2.82-8.51-8.51V71.56c0-1.44.66-2.09,2.1-2.09h5c1.44,0,2.09.65,2.09,2.09v34.61a1.43,1.43,0,0,0,1.64,1.63h1a1.42,1.42,0,0,0,1.63-1.63V71.56c0-1.44.66-2.09,2.1-2.09Z"/><path class="a" d="M239.65,93.61c2.81.78,4,2.55,4,5.89v13.67c0,1.44-.65,2.09-2.09,2.09h-5c-1.44,0-2.1-.65-2.1-2.09V99.56a1.42,1.42,0,0,0-1.63-1.63h-2.29v15.24c0,1.44-.66,2.09-2.1,2.09h-5c-1.44,0-2.09-.65-2.09-2.09V71.56c0-1.44.65-2.09,2.09-2.09h11.58c5.69,0,8.51,2.81,8.51,8.5V86.8C243.58,90.73,242.14,92.69,239.65,93.61Zm-5.23-14.53a1.43,1.43,0,0,0-1.64-1.63h-2.22V90.14h2.22a1.43,1.43,0,0,0,1.64-1.64Z"/><path class="a" d="M265,93.61c2.81.78,4,2.55,4,5.89v13.67c0,1.44-.66,2.09-2.1,2.09h-5c-1.44,0-2.09-.65-2.09-2.09V99.56a1.43,1.43,0,0,0-1.64-1.63h-2.29v15.24c0,1.44-.65,2.09-2.09,2.09h-5c-1.44,0-2.1-.65-2.1-2.09V71.56c0-1.44.66-2.09,2.1-2.09h11.58c5.69,0,8.5,2.81,8.5,8.5V86.8C268.89,90.73,267.45,92.69,265,93.61Zm-5.24-14.53a1.42,1.42,0,0,0-1.63-1.63h-2.23V90.14h2.23a1.43,1.43,0,0,0,1.63-1.64Z"/><path class="a" d="M287.67,115.26c-1.38,0-2-.52-2.1-1.89l-.52-4.78h-5.76l-.45,4.78c-.14,1.37-.72,1.89-2.1,1.89h-4.05c-1.57,0-2.23-.72-2-2.35l5.43-41.61a1.82,1.82,0,0,1,2.09-1.83H287a1.83,1.83,0,0,1,2.1,1.83l5.43,41.61c.19,1.63-.46,2.35-2,2.35Zm-3.4-14.65-2.1-20-2,20Z"/><path class="a" d="M314.69,91.51c2.81,2,3.66,3.8,3.66,7.2v8.44c0,5.69-2.81,8.51-8.51,8.51h-5.1c-5.69,0-8.5-2.82-8.5-8.51V99.5c0-1.44.65-2.1,2.09-2.1h4.78a1.82,1.82,0,0,1,2.09,2.1v6.8a1.43,1.43,0,0,0,1.63,1.64h.85a1.43,1.43,0,0,0,1.64-1.64v-5.5a3.12,3.12,0,0,0-1.57-2.94L299.9,92a7.66,7.66,0,0,1-3.66-7.2V77.58c0-5.69,2.81-8.51,8.5-8.51h5c5.7,0,8.51,2.82,8.51,8.51v6.28A1.82,1.82,0,0,1,316.13,86h-4.78c-1.44,0-2.09-.65-2.09-2.09V78.43a1.44,1.44,0,0,0-1.64-1.64h-.72a1.44,1.44,0,0,0-1.64,1.64v4.32a3.11,3.11,0,0,0,1.57,2.94Z"/><path class="a" d="M63.43,0a63.43,63.43,0,1,0,63.42,63.43A63.43,63.43,0,0,0,63.43,0ZM75.88,13.58a1.51,1.51,0,0,1-.24-2.22,1.5,1.5,0,0,1,2.22-.25c.33.25,8.32,6.67,5,13.51a22.14,22.14,0,0,1-3,4.29c-2.56,3.21-4.37,5.44-1.48,12a1.66,1.66,0,0,1-.83,2.14H77a1.52,1.52,0,0,1-1.49-1c-3.62-8.32-.82-11.86,1.9-15.32a20.3,20.3,0,0,0,2.55-3.71C82.15,18.53,76,13.58,75.88,13.58Zm-15.24,0a1.58,1.58,0,1,1,2-2.47c.33.25,8.32,6.67,4.94,13.51a22.12,22.12,0,0,1-3,4.29c-2.56,3.21-4.37,5.44-1.49,12a1.66,1.66,0,0,1-.82,2.14h-.58a1.51,1.51,0,0,1-1.48-1c-3.63-8.32-.83-11.86,1.89-15.32a19.86,19.86,0,0,0,2.56-3.71C66.9,18.53,60.72,13.58,60.64,13.58Zm-15.33,0a1.51,1.51,0,0,1-.24-2.22,1.5,1.5,0,0,1,2.22-.25c.33.25,8.32,6.67,5,13.51a22.14,22.14,0,0,1-3,4.29c-2.56,3.21-4.37,5.44-1.48,12A1.66,1.66,0,0,1,47,43.08h-.58a1.52,1.52,0,0,1-1.48-1c-3.62-8.32-.82-11.86,1.9-15.32a20.3,20.3,0,0,0,2.55-3.71C51.58,18.53,45.4,13.58,45.31,13.58Zm40.6,78.23A12,12,0,0,1,97.4,106.3a12.43,12.43,0,0,1-15.29,9.37c-4.58-1.22-8-5-8.67-11A2.43,2.43,0,0,0,71,102.49H45a2.48,2.48,0,0,0-2.22,1.39L39,111.64a2.32,2.32,0,0,1-2.14,1.4,2.4,2.4,0,0,1-2.15-3.46l13-26.68a2.46,2.46,0,0,0-1.11-3.27A37.33,37.33,0,0,1,26.2,48.9a2.47,2.47,0,0,1,2.47-2.61H98.22a2.46,2.46,0,0,1,2.46,2.61A37.4,37.4,0,0,1,80.4,79.54a2.47,2.47,0,0,0-1,3.43l4.43,7.62A2.48,2.48,0,0,0,85.91,91.81Zm-11.64-8,4.26,7.37a2.46,2.46,0,0,1-.6,3.15,13.19,13.19,0,0,0-2.29,2.37,2.44,2.44,0,0,1-2,1H49.74a2.46,2.46,0,0,1-2.22-3.53L52.43,84a2.47,2.47,0,0,1,2.75-1.32,36.89,36.89,0,0,0,8.18.92,36,36,0,0,0,8.24-1A2.46,2.46,0,0,1,74.27,83.84Zm5.47,21.48a5.86,5.86,0,1,1,4.36,4.35A5.87,5.87,0,0,1,79.74,105.32Z"/></svg>